<?xml version="1.0" encoding="UTF-8"?>
<svg width="1024px" height="1024px" viewBox="0 0 1024 1024" version="1.1" xmlns="http://www.w3.org/2000/svg" xmlns:xlink="http://www.w3.org/1999/xlink">
    <title>Icon</title>
    <defs>
        <path d="M0,0 L1024,0 L1024,1024 L0,1024 L0,0 Z" id="path-1"></path>
        <linearGradient x1="28.4625%" y1="6.34050481%" x2="85.4456731%" y2="105.247356%" id="linearGradient-2">
            <stop stop-color="#BF0000" offset="0%"></stop>
            <stop stop-color="#8A0000" offset="100%"></stop>
        </linearGradient>
    </defs>
    <g id="Icon" stroke="none" fill="none" xlink:href="#path-1" fill-rule="evenodd" stroke-width="1">
        <g id="Reactor" transform="translate(-88, -88)" fill="url(#linearGradient-2)">
            <path d="M599.748196,249.8 C406.787656,249.8 249.8,406.787656 249.8,599.748196 C249.8,792.750179 406.787656,949.8 599.748196,949.8 C792.750179,949.8 949.8,792.770901 949.8,599.748196 C949.8,406.787656 792.750179,249.8 599.748196,249.8 Z M600.000371,849.836085 C461.982514,849.836085 350.036085,737.782514 350.036085,599.800371 C350.036085,461.782514 461.982514,349.836085 600.000371,349.836085 C738.000371,349.836085 850.036085,461.782514 850.036085,599.800371 C850.036085,737.782514 738.000371,849.836085 600.000371,849.836085 Z" id="Inner" fill-rule="nonzero"></path>
            <path d="M599.703792,-50.2 C241.348504,-50.2 -50.2,241.348504 -50.2,599.703792 C-50.2,958.136047 241.348504,1249.8 599.703792,1249.8 C958.136047,1249.8 1249.8,958.17453 1249.8,599.703792 C1249.8,241.348504 958.136047,-50.2 599.703792,-50.2 Z M601.964657,1099.83609 C325.928943,1099.83609 102.036085,875.728943 102.036085,599.764657 C102.036085,323.728943 325.928943,99.8360854 601.964657,99.8360854 C877.964657,99.8360854 1102.03609,323.728943 1102.03609,599.764657 C1102.03609,875.728943 877.964657,1099.83609 601.964657,1099.83609 Z" id="Outer" fill-rule="nonzero"></path>
        </g>
    </g>
</svg>